<svg width="42" height="43" viewBox="0 0 42 43" fill="none" xmlns="http://www.w3.org/2000/svg">
<path fill-rule="evenodd" clip-rule="evenodd" d="M38.8501 0.5C40.5898 0.5 42.0001 1.9103 42.0001 3.65L42.0001 39.35C42.0001 41.0897 40.5898 42.5 38.8501 42.5L3.15012 42.5C1.41042 42.5 0.000120296 41.0897 0.000120372 39.35L0.000121933 3.65C0.000122009 1.9103 1.41043 0.499998 3.15012 0.499998L38.8501 0.5Z" fill="white"/>
<path fill-rule="evenodd" clip-rule="evenodd" d="M31.5225 20.8441C31.8935 21.2062 31.8935 21.7934 31.5225 22.1555L22.0225 31.4282C21.6515 31.7903 21.05 31.7903 20.679 31.4282C20.308 31.0661 20.308 30.479 20.679 30.1169L29.5073 21.4998L20.679 12.8828C20.308 12.5206 20.308 11.9335 20.679 11.5714C21.05 11.2093 21.6515 11.2093 22.0225 11.5714L31.5225 20.8441Z" fill="#0062E0" stroke="#0062E0" stroke-width="3" stroke-linecap="round" stroke-linejoin="round"/>
<path fill-rule="evenodd" clip-rule="evenodd" d="M31.2012 21.5008C31.2012 22.1635 30.786 22.7008 30.2739 22.7008L11.7284 22.7008C11.2163 22.7008 10.8012 22.1635 10.8012 21.5008C10.8012 20.838 11.2163 20.3008 11.7284 20.3008L30.2739 20.3008C30.786 20.3008 31.2012 20.838 31.2012 21.5008Z" fill="#0062E0" stroke="#0062E0" stroke-width="3" stroke-linecap="round" stroke-linejoin="round"/>
</svg>
